# xmcd CD database file
#
# Track frame offsets:
#	182
#	23300
#	44862
#	71262
#	96792
#	122730
#	144465
#	175885
#
# Disc length: 2510 seconds
#
# Revision: 0
# Processed by: cddbd v1.5.1PL0 Copyright (c) Steve Scherf et al.
# Submitted via: CDex 1.60beta1
#
DISCID=6609cc08
DTITLE=Eddie "Lockjaw" Davis - All of Me
DYEAR=1983
DGENRE=Jazz
TTITLE0=I Only Have Eyes for You
TTITLE1=Ow!
TTITLE2=Funky Fluke
TTITLE3=There Is No Greater Love
TTITLE4=All of Me
TTITLE5=That's All
TTITLE6=Coming Home Baby
TTITLE7=Four
EXTD=YEAR: 1983
EXTT0=
EXTT1=
EXTT2=
EXTT3=
EXTT4=
EXTT5=
EXTT6=
EXTT7=
PLAYORDER=
